<svg width="24" height="25" viewBox="0 0 24 25" fill="none" xmlns="http://www.w3.org/2000/svg">
<path d="M20 2.5H4C2.89543 2.5 2 3.39543 2 4.5V15.29C2 16.3946 2.89543 17.29 4 17.29H8.15217C8.52654 17.29 8.86955 17.4991 9.04106 17.8319L11.1026 21.8317C11.4692 22.5432 12.4815 22.557 12.8675 21.8558L15.0959 17.8078C15.2717 17.4884 15.6074 17.29 15.9719 17.29H20C21.1046 17.29 22 16.3946 22 15.29V4.5C22 3.39543 21.1046 2.5 20 2.5Z" stroke="currentColor" stroke-width="2" stroke-linecap="round"/>
<circle cx="7.07812" cy="10.2686" r="0.960938" fill="currentColor"/>
<circle cx="12" cy="10.2686" r="0.960938" fill="currentColor"/>
<circle cx="16.9219" cy="10.2686" r="0.960938" fill="currentColor"/>
</svg>
