<svg width="24" height="25" viewBox="0 0 24 25" fill="none" xmlns="http://www.w3.org/2000/svg">
<path d="M12.3712 13.408C13.8742 14.3178 16.2404 14.2342 18.0581 13.2426C19.703 12.4446 20.9738 10.4518 21.0389 8.56861C21.2143 6.69299 20.2085 4.54337 18.6798 3.52658C17.9432 2.99419 16.9541 2.66297 15.8939 2.63058C14.8336 2.59818 13.7021 2.86461 12.7243 3.3446C5.56784 6.80791 1.83762 14.7985 3.22335 22.4983C3.23088 22.5678 3.30799 22.6335 3.37518 22.6276C3.44248 22.6318 3.51806 22.5643 3.52398 22.4946C3.73598 21.0865 4.22136 19.3813 4.70761 18.2612C5.3352 19.0226 6.36667 19.6256 7.45606 19.7757C8.54546 19.9257 9.69278 19.6228 10.49 19.0576C11.2608 18.5504 11.9547 17.6617 12.2803 16.6372C12.6059 15.6127 12.5631 14.4525 12.2172 13.5473C12.2004 13.5072 12.2144 13.4492 12.2475 13.4221C12.2779 13.3918 12.3352 13.3852 12.3712 13.408Z" stroke="currentColor" stroke-width="2"/>
</svg>
