<svg width="40" height="40" viewBox="-2 -2 44 44" fill="none" xmlns="http://www.w3.org/2000/svg">
  <path d="M6.2793 3.33398V13.4023" stroke="#FEFEFE" stroke-width="2.5" stroke-linecap="round"/>
  <path d="M11.3184 8.36816L1.25 8.36816" stroke="#FEFEFE" stroke-width="2.5" stroke-linecap="round"/>
  <path d="M29.0254 5.00342C30.4924 5.04824 31.811 5.50845 32.7432 6.18213L32.7695 6.20068L32.7969 6.21924C34.8175 7.5634 36.2293 10.5444 35.9922 13.0796L35.9873 13.1284L35.9854 13.1772C35.8973 15.7222 34.1205 18.4746 31.9561 19.5249L31.9199 19.5425L31.8848 19.561C29.2506 20.9979 25.954 21.016 24.0684 19.8745H24.0674C23.6611 19.6279 23.2353 19.5855 22.9102 19.6226C22.6148 19.6562 22.2579 19.7717 21.9424 20.0347C21.5714 20.3388 21.3963 20.7262 21.3232 21.0278C21.2525 21.3198 21.234 21.7145 21.3926 22.1265L21.3916 22.1274C21.8302 23.2751 21.8967 24.8209 21.4658 26.1772C21.0359 27.5301 20.1112 28.694 19.1543 29.3237L19.1299 29.3394L19.1064 29.3569C18.1243 30.0533 16.638 30.4544 15.2412 30.2622C13.8436 30.0697 12.5008 29.2775 11.7188 28.3286L9.9873 26.228L9.35352 27.687C10.4522 18.5414 15.9229 10.1881 24.5195 6.02783L24.5283 6.02393C25.9377 5.3322 27.5553 4.95851 29.0254 5.00342Z" fill="#FEFEFE" stroke="#FEFEFE" stroke-width="3.33333"/>
</svg>
