<svg width="18" height="18" viewBox="0 0 18 18" fill="none" xmlns="http://www.w3.org/2000/svg">
<circle cx="9.43555" cy="8.5166" r="4.17188" fill="#FEFEFE"/>
<path fill-rule="evenodd" clip-rule="evenodd" d="M9.43555 1.0166C5.2935 1.0166 1.93555 4.37456 1.93555 8.5166C1.93555 12.6586 5.2935 16.0166 9.43555 16.0166C13.5776 16.0166 16.9355 12.6586 16.9355 8.5166C16.9355 4.37456 13.5776 1.0166 9.43555 1.0166ZM11.963 6.95319C12.0872 6.8246 12.156 6.65237 12.1544 6.4736C12.1529 6.29483 12.0812 6.12382 11.9547 5.99741C11.8283 5.87099 11.6573 5.79929 11.4785 5.79773C11.2998 5.79618 11.1275 5.8649 10.999 5.9891L9.43555 7.55251L7.87214 5.9891C7.80924 5.92398 7.73401 5.87204 7.65082 5.8363C7.56764 5.80057 7.47817 5.78176 7.38764 5.78098C7.29711 5.78019 7.20733 5.79744 7.12353 5.83172C7.03974 5.86601 6.96361 5.91663 6.8996 5.98065C6.83558 6.04467 6.78495 6.12079 6.75067 6.20459C6.71639 6.28838 6.69913 6.37816 6.69992 6.46869C6.70071 6.55922 6.71952 6.64869 6.75525 6.73188C6.79098 6.81506 6.84293 6.8903 6.90805 6.95319L8.47146 8.5166L6.90805 10.08C6.84293 10.1429 6.79098 10.2181 6.75525 10.3013C6.71952 10.3845 6.70071 10.474 6.69992 10.5645C6.69913 10.655 6.71639 10.7448 6.75067 10.8286C6.78495 10.9124 6.83558 10.9885 6.8996 11.0526C6.96361 11.1166 7.03974 11.1672 7.12353 11.2015C7.20733 11.2358 7.29711 11.253 7.38764 11.2522C7.47817 11.2514 7.56764 11.2326 7.65082 11.1969C7.73401 11.1612 7.80924 11.1092 7.87214 11.0441L9.43555 9.48069L10.999 11.0441C11.1275 11.1683 11.2998 11.237 11.4785 11.2355C11.6573 11.2339 11.8283 11.1622 11.9547 11.0358C12.0812 10.9094 12.1529 10.7384 12.1544 10.5596C12.156 10.3808 12.0872 10.2086 11.963 10.08L10.3996 8.5166L11.963 6.95319Z" fill="#979797"/>
</svg>
