<svg width="17" height="18" viewBox="0 0 17 18" fill="none" xmlns="http://www.w3.org/2000/svg">
<path d="M6.13477 3.36133C6.55478 2.47566 7.7726 2.43133 8.27832 3.21484L8.37012 3.38281L10.5479 8.20312L10.9238 9.03516L11.667 8.50488C11.8122 8.40133 11.9807 8.32911 12.1602 8.2959C12.3396 8.26274 12.5248 8.26939 12.7012 8.31445C12.8774 8.35953 13.0397 8.44214 13.1768 8.55469C13.2796 8.63917 13.3661 8.73928 13.4336 8.84961L13.4951 8.96289L13.499 8.9707L15.6289 13.4043C16.0132 14.2049 15.4397 15.1602 14.5186 15.1602H2.48047C1.62041 15.1601 1.06228 14.3254 1.30859 13.5615L1.36816 13.4102L6.13477 3.3623V3.36133Z" stroke-width="1.5"/>
</svg>
