<svg width="17" height="18" viewBox="0 0 17 18" fill="none" xmlns="http://www.w3.org/2000/svg">
<path d="M15.7482 2.41055C15.7482 1.99635 15.4124 1.66058 14.9981 1.66058L8.24785 1.66058C7.83362 1.66058 7.49782 1.99635 7.49782 2.41055C7.49782 2.82475 7.83362 3.16052 8.24785 3.16052L14.2481 3.16052L14.2481 9.16027C14.2481 9.57447 14.5839 9.91024 14.9981 9.91024C15.4124 9.91024 15.7482 9.57447 15.7482 9.16027L15.7482 2.41055ZM9.22266 8.18555L9.75301 8.71586L15.5285 2.94086L14.9981 2.41055L14.4678 1.88024L8.6923 7.65524L9.22266 8.18555Z" />
<path d="M1.24989 15.4107C1.24989 15.8249 1.58569 16.1607 1.99992 16.1607L8.7502 16.1607C9.16443 16.1607 9.50023 15.8249 9.50023 15.4107C9.50023 14.9965 9.16443 14.6608 8.7502 14.6608L2.74995 14.6608L2.74995 8.66102C2.74995 8.24682 2.41415 7.91105 1.99992 7.91105C1.58569 7.91105 1.24989 8.24682 1.24989 8.66102L1.24989 15.4107ZM7.77539 9.63574L7.24504 9.10543L1.46957 14.8804L1.99992 15.4107L2.53027 15.941L8.30574 10.1661L7.77539 9.63574Z" />
</svg>
