<svg width="116" height="128" viewBox="0 0 116 128" fill="currentColor" xmlns="http://www.w3.org/2000/svg">
<path d="M60.3885 68.9924C70.0093 74.8149 85.1562 74.2799 96.7919 67.9339C107.321 62.8264 115.457 50.073 115.873 38.0203C116.996 26.0164 110.558 12.2588 100.772 5.75138C96.0563 2.34409 89.725 0.224288 82.938 0.0169473C76.1509 -0.190394 68.9081 1.51472 62.6483 4.58669C16.8377 26.7519 -7.04068 77.8918 1.82985 127.17C1.87804 127.615 2.37165 128.035 2.80172 127.998C3.23255 128.025 3.71634 127.592 3.75425 127.146C5.11135 118.135 8.21845 107.221 11.331 100.053C15.3485 104.926 21.9513 108.785 28.9249 109.746C35.8984 110.706 43.2428 108.767 48.3463 105.15C53.2804 101.904 57.7224 96.2163 59.8065 89.6596C61.8906 83.1028 61.6168 75.677 59.4025 69.8843C59.2949 69.6273 59.3848 69.2562 59.5966 69.0826C59.7913 68.8885 60.1579 68.8467 60.3885 68.9924Z" fill="currentColor"/>
</svg>
