<svg width="177" height="56" viewBox="0 0 177 56" fill="none" xmlns="http://www.w3.org/2000/svg">
<path d="M167 0C172.523 0 177 4.47715 177 10V34C177 39.5228 172.523 44 167 44H154.613L148.477 54.75C147.709 56.0947 145.77 56.0947 145.002 54.75L138.865 44H10C4.47715 44 1.61069e-07 39.5228 0 34V10C5.15422e-07 4.47715 4.47715 1.00665e-08 10 0H167Z" fill="#FEFEFE"/>
<path d="M27.0444 27.8682H14.8569V26.3374H27.0444V27.8682ZM21.8442 26.9746H20.0059V23.8105H21.8442V26.9746ZM25.6382 21.2983H18.1235V23.5762H16.2632V19.8335H23.7925V18.3833H16.2412V16.8818H25.6382V21.2983ZM25.9531 24.3159H16.2632V22.7998H25.9531V24.3159ZM37.5986 18.7495H29.0732V17.2407H37.5986V18.7495ZM39.979 27.5898H27.8208V26.0737H39.979V27.5898ZM38.4775 18.8374C38.4775 19.6724 38.4678 20.3706 38.4482 20.9321C38.4336 21.4888 38.3921 22.1309 38.3237 22.8584C38.2603 23.5859 38.1528 24.3818 38.0015 25.2461L36.1045 25.0923C36.2656 24.2915 36.3828 23.5347 36.4561 22.8218C36.5293 22.1089 36.5732 21.4668 36.5879 20.8955C36.6025 20.3193 36.6099 19.6333 36.6099 18.8374V17.2407H38.4775V18.8374ZM51.9321 25.6123H50.0645V16.0322H51.9321V25.6123ZM52.2983 29.1206H43.0039V27.6118H52.2983V29.1206ZM44.8936 28.2271H43.0039V24.6528H44.8936V28.2271ZM44.6299 16.8745C45.3086 16.8745 45.9263 17.0186 46.4829 17.3066C47.0444 17.5898 47.4839 17.9902 47.8013 18.5078C48.1187 19.0205 48.2773 19.5942 48.2773 20.229C48.2773 20.8833 48.1187 21.4668 47.8013 21.9795C47.4839 22.4922 47.0444 22.895 46.4829 23.188C45.9263 23.4761 45.3086 23.6201 44.6299 23.6201C43.9512 23.6201 43.3335 23.4761 42.7769 23.188C42.2251 22.895 41.7881 22.4922 41.4658 21.9795C41.1436 21.4668 40.9824 20.8833 40.9824 20.229C40.9824 19.5942 41.1436 19.0205 41.4658 18.5078C41.7881 17.9902 42.2251 17.5898 42.7769 17.3066C43.3335 17.0186 43.9512 16.8745 44.6299 16.8745ZM44.6299 18.5005C44.2832 18.4956 43.9707 18.564 43.6924 18.7056C43.4189 18.8423 43.2017 19.0425 43.0405 19.3062C42.8843 19.5698 42.8062 19.8774 42.8062 20.229C42.8062 20.5903 42.8843 20.9053 43.0405 21.1738C43.2017 21.4375 43.4189 21.6401 43.6924 21.7817C43.9707 21.9185 44.2832 21.9868 44.6299 21.9868C44.9717 21.9868 45.2769 21.9185 45.5454 21.7817C45.8188 21.6401 46.0337 21.4375 46.1899 21.1738C46.3462 20.9053 46.4243 20.5903 46.4243 20.229C46.4243 19.8774 46.3462 19.5698 46.1899 19.3062C46.0337 19.0425 45.8188 18.8423 45.5454 18.7056C45.2769 18.564 44.9717 18.4956 44.6299 18.5005ZM64.2588 29.3477H62.4131V16.0029H64.2588V29.3477ZM66.2363 22.7705H63.8486V21.2397H66.2363V22.7705ZM61.5049 19.5039H53.6753V18.0024H61.5049V19.5039ZM57.623 20.2437C58.2725 20.2437 58.856 20.3804 59.3735 20.6538C59.8911 20.9224 60.2964 21.2983 60.5894 21.7817C60.8872 22.2651 61.0361 22.812 61.0361 23.4224C61.0361 24.0327 60.8872 24.5796 60.5894 25.063C60.2964 25.5464 59.8911 25.9248 59.3735 26.1982C58.856 26.4668 58.2725 26.6011 57.623 26.6011C56.9736 26.6011 56.3901 26.4668 55.8726 26.1982C55.355 25.9248 54.9497 25.5464 54.6567 25.063C54.3638 24.5796 54.2173 24.0327 54.2173 23.4224C54.2173 22.812 54.3638 22.2651 54.6567 21.7817C54.9497 21.2983 55.355 20.9224 55.8726 20.6538C56.3901 20.3804 56.9736 20.2437 57.623 20.2437ZM57.623 21.7671C57.3154 21.7671 57.0371 21.8354 56.7881 21.9722C56.5439 22.104 56.3511 22.2969 56.2095 22.5508C56.0728 22.7998 56.0044 23.0903 56.0044 23.4224C56.0044 23.7593 56.0728 24.0522 56.2095 24.3013C56.3511 24.5503 56.5439 24.7432 56.7881 24.8799C57.0371 25.0117 57.3154 25.0776 57.623 25.0776C57.9404 25.0776 58.2212 25.0117 58.4653 24.8799C58.7095 24.7432 58.8975 24.5503 59.0293 24.3013C59.166 24.0522 59.2344 23.7593 59.2344 23.4224C59.2344 23.0903 59.166 22.7998 59.0293 22.5508C58.8975 22.2969 58.7095 22.104 58.4653 21.9722C58.2212 21.8354 57.9404 21.7671 57.623 21.7671ZM58.5532 18.5737H56.6929V16.2153H58.5532V18.5737ZM76.4976 18.647H67.9575V17.1675H76.4976V18.647ZM78.8706 27.7144H66.7124V26.1982H78.8706V27.7144ZM72.916 26.9746H71.063V21.6133H72.916V26.9746ZM77.6841 18.4346C77.6841 19.2158 77.6743 19.8823 77.6548 20.4341C77.6353 20.981 77.5889 21.6304 77.5156 22.3823C77.4424 23.1294 77.3252 23.9399 77.1641 24.814L75.2671 24.6162C75.438 23.8008 75.5625 23.0317 75.6406 22.3091C75.7188 21.5815 75.7651 20.9395 75.7798 20.3828C75.7993 19.8213 75.8091 19.1719 75.8091 18.4346V17.1675H77.6841V18.4346ZM87.0957 19.46C87.0957 20.5049 86.9883 21.4912 86.7734 22.4189C86.5635 23.3467 86.2314 24.1792 85.7773 24.9165C85.3281 25.6538 84.7568 26.2324 84.0635 26.6523L82.8916 25.2827C83.5312 24.9067 84.0586 24.4111 84.4736 23.7959C84.8887 23.1758 85.189 22.4971 85.3745 21.7598C85.5649 21.0225 85.6602 20.2559 85.6602 19.46V17.1602H87.0957V19.46ZM87.4766 19.3281C87.4766 20.1436 87.5571 20.9004 87.7183 21.5986C87.8794 22.292 88.1479 22.917 88.5239 23.4736C88.8999 24.0254 89.3857 24.46 89.9814 24.7773L88.8828 26.2642C88.1943 25.8735 87.6353 25.3315 87.2056 24.6382C86.7808 23.9448 86.4756 23.1562 86.29 22.2725C86.1045 21.3887 86.0117 20.4072 86.0117 19.3281V17.1602H87.4766V19.3281ZM94.6982 29.3477H92.9038V16.0029H94.6982V29.3477ZM93.4971 22.7119H91.2412V21.2104H93.4971V22.7119ZM91.7612 28.7324H89.9888V16.208H91.7612V28.7324ZM108.285 24.6602H96.0972V23.166H108.285V24.6602ZM106.812 19.8848H99.4736V21.335H97.6133V18.5371H104.938V17.7168H97.5913V16.2666H106.812V19.8848ZM107.062 22.2065H97.6133V20.771H107.062V22.2065ZM103.114 23.9863H101.261V21.4448H103.114V23.9863ZM106.886 29.2964H105.003V26.8794H97.4521V25.4146H106.886V29.2964ZM117.103 18.2441C117.103 19.0938 116.961 19.8921 116.678 20.6392C116.4 21.3813 115.978 22.0283 115.411 22.5801C114.85 23.127 114.156 23.5396 113.331 23.8179L112.35 22.375C113.058 22.1406 113.653 21.8086 114.137 21.3789C114.62 20.9443 114.979 20.4585 115.213 19.9214C115.453 19.3794 115.572 18.8203 115.572 18.2441V17.3799H117.103V18.2441ZM117.462 18.2588C117.462 18.8008 117.572 19.3257 117.792 19.8335C118.016 20.3364 118.36 20.7905 118.824 21.1958C119.288 21.6011 119.867 21.9185 120.56 22.1479L119.623 23.5908C118.812 23.3271 118.131 22.9292 117.579 22.397C117.032 21.8599 116.622 21.2397 116.349 20.5366C116.075 19.8286 115.938 19.0693 115.938 18.2588V17.3799H117.462V18.2588ZM120.121 18.2881H112.855V16.7939H120.121V18.2881ZM123.116 24.0596H121.249V16.0029H123.116V24.0596ZM124.918 20.8003H122.589V19.2476H124.918V20.8003ZM123.116 29.3477H121.249V26.1177H114.144V24.6309H123.116V29.3477ZM130.184 17.9219C130.184 18.835 130.042 19.6821 129.759 20.4634C129.481 21.2397 129.059 21.916 128.492 22.4922C127.926 23.0684 127.22 23.5029 126.375 23.7959L125.379 22.2944C126.117 22.0601 126.729 21.7207 127.218 21.2764C127.711 20.8271 128.075 20.3169 128.309 19.7456C128.543 19.1743 128.661 18.5664 128.661 17.9219V16.7134H130.184V17.9219ZM130.543 17.8267C130.543 18.4419 130.65 19.0205 130.865 19.5625C131.08 20.0996 131.417 20.5757 131.876 20.9907C132.335 21.4009 132.909 21.7134 133.597 21.9282L132.594 23.3857C131.798 23.1074 131.134 22.6997 130.602 22.1626C130.074 21.6255 129.681 20.9907 129.422 20.2583C129.168 19.5259 129.042 18.7153 129.042 17.8267V16.7134H130.543V17.8267ZM136.739 23.8252H134.879V16.0029H136.739V23.8252ZM132.184 24.1768C133.136 24.1768 133.956 24.2769 134.645 24.4771C135.333 24.6772 135.86 24.9727 136.227 25.3633C136.598 25.7539 136.783 26.2227 136.783 26.7695C136.783 27.3066 136.598 27.7705 136.227 28.1611C135.86 28.5518 135.333 28.8472 134.645 29.0474C133.956 29.2476 133.136 29.3477 132.184 29.3477C131.241 29.3477 130.426 29.2476 129.737 29.0474C129.054 28.8472 128.526 28.5518 128.155 28.1611C127.789 27.7705 127.606 27.3066 127.606 26.7695C127.606 26.2227 127.789 25.7539 128.155 25.3633C128.526 24.9727 129.054 24.6772 129.737 24.4771C130.426 24.2769 131.241 24.1768 132.184 24.1768ZM132.184 25.6196C131.598 25.6196 131.102 25.6611 130.697 25.7441C130.292 25.8271 129.984 25.9541 129.774 26.125C129.564 26.2959 129.459 26.5107 129.459 26.7695C129.459 27.0088 129.564 27.2139 129.774 27.3848C129.984 27.5508 130.292 27.6777 130.697 27.7656C131.102 27.8535 131.598 27.8975 132.184 27.8975C132.784 27.8975 133.287 27.8535 133.692 27.7656C134.098 27.6777 134.403 27.5508 134.608 27.3848C134.813 27.2139 134.916 27.0088 134.916 26.7695C134.916 26.5107 134.813 26.2959 134.608 26.125C134.403 25.9541 134.098 25.8271 133.692 25.7441C133.287 25.6611 132.784 25.6196 132.184 25.6196ZM135.135 19.9873H132.374V18.4639H135.135V19.9873ZM148.985 29.3477H147.14V16.0029H148.985V29.3477ZM150.963 22.7705H148.575V21.2397H150.963V22.7705ZM146.231 19.5039H138.402V18.0024H146.231V19.5039ZM142.35 20.2437C142.999 20.2437 143.583 20.3804 144.1 20.6538C144.618 20.9224 145.023 21.2983 145.316 21.7817C145.614 22.2651 145.763 22.812 145.763 23.4224C145.763 24.0327 145.614 24.5796 145.316 25.063C145.023 25.5464 144.618 25.9248 144.1 26.1982C143.583 26.4668 142.999 26.6011 142.35 26.6011C141.7 26.6011 141.117 26.4668 140.599 26.1982C140.082 25.9248 139.676 25.5464 139.383 25.063C139.09 24.5796 138.944 24.0327 138.944 23.4224C138.944 22.812 139.09 22.2651 139.383 21.7817C139.676 21.2983 140.082 20.9224 140.599 20.6538C141.117 20.3804 141.7 20.2437 142.35 20.2437ZM142.35 21.7671C142.042 21.7671 141.764 21.8354 141.515 21.9722C141.271 22.104 141.078 22.2969 140.936 22.5508C140.799 22.7998 140.731 23.0903 140.731 23.4224C140.731 23.7593 140.799 24.0522 140.936 24.3013C141.078 24.5503 141.271 24.7432 141.515 24.8799C141.764 25.0117 142.042 25.0776 142.35 25.0776C142.667 25.0776 142.948 25.0117 143.192 24.8799C143.436 24.7432 143.624 24.5503 143.756 24.3013C143.893 24.0522 143.961 23.7593 143.961 23.4224C143.961 23.0903 143.893 22.7998 143.756 22.5508C143.624 22.2969 143.436 22.104 143.192 21.9722C142.948 21.8354 142.667 21.7671 142.35 21.7671ZM143.28 18.5737H141.419V16.2153H143.28V18.5737ZM162.638 29.3477H160.741V16.0029H162.638V29.3477ZM158.646 17.4092C158.646 18.8398 158.453 20.1387 158.067 21.3057C157.687 22.4678 157.04 23.5371 156.126 24.5137C155.213 25.4854 153.99 26.335 152.457 27.0625L151.476 25.5684C152.76 24.9629 153.79 24.2817 154.566 23.5249C155.343 22.7681 155.907 21.9185 156.258 20.9761C156.61 20.0337 156.786 18.9546 156.786 17.7388V17.4092H158.646ZM157.643 18.8813H152.186V17.4092H157.643V18.8813Z" fill="#4190FF"/>
</svg>
